<svg width="34" height="33" viewBox="0 0 34 33" fill="none" xmlns="http://www.w3.org/2000/svg">
<g clip-path="url(#clip0_66_949)">
<path fill-rule="evenodd" clip-rule="evenodd" d="M23.5575 0C24.3707 0 25.0307 0.66 25.0307 1.47321V3.40607C25.0307 3.79679 24.8755 4.17151 24.5992 4.44779C24.3229 4.72407 23.9482 4.87929 23.5575 4.87929C23.1668 4.87929 22.7921 4.72407 22.5158 4.44779C22.2395 4.17151 22.0843 3.79679 22.0843 3.40607V1.47321C22.0843 0.66 22.7443 0 23.5575 0ZM9.7918 20.5967C10.5533 20.6122 11.3102 20.4755 12.0183 20.1948C12.7263 19.9141 13.3712 19.4949 13.9152 18.9618C14.4592 18.4287 14.8914 17.7924 15.1865 17.0903C15.4815 16.3881 15.6335 15.6341 15.6335 14.8724C15.6335 14.1107 15.4815 13.3567 15.1865 12.6545C14.8914 11.9523 14.4592 11.3161 13.9152 10.783C13.3712 10.2499 12.7263 9.83072 12.0183 9.54999C11.3102 9.26926 10.5533 9.13262 9.7918 9.14807C8.29373 9.17847 6.86727 9.79493 5.81856 10.8651C4.76985 11.9353 4.18246 13.374 4.18246 14.8724C4.18246 16.3708 4.76985 17.8094 5.81856 18.8797C6.86727 19.9499 8.29373 20.5663 9.7918 20.5967ZM0.252441 32.0454C0.291807 29.541 1.31428 27.1526 3.0992 25.3955C4.88411 23.6384 7.28833 22.6536 9.79298 22.6536C12.2976 22.6536 14.7018 23.6384 16.4868 25.3955C18.2717 27.1526 19.2941 29.541 19.3335 32.0454C19.3335 32.2985 19.2329 32.5414 19.0539 32.7204C18.8749 32.8994 18.6321 33 18.3789 33H1.20708C0.953897 33 0.71108 32.8994 0.53205 32.7204C0.35302 32.5414 0.252441 32.2985 0.252441 32.0454ZM32.583 5.87636C32.745 5.76673 32.8835 5.62596 32.9904 5.46226C33.0974 5.29855 33.1707 5.11518 33.2061 4.92284C33.2415 4.73051 33.2382 4.53305 33.1965 4.34199C33.1547 4.15094 33.0754 3.9701 32.963 3.81003C32.8507 3.64996 32.7076 3.51386 32.5421 3.40966C32.3766 3.30547 32.192 3.23527 31.9991 3.20315C31.8062 3.17104 31.6088 3.17765 31.4185 3.22261C31.2282 3.26756 31.0487 3.34996 30.8906 3.465L29.3089 4.57521C28.9965 4.80252 28.7858 5.14348 28.7223 5.52464C28.6589 5.9058 28.7477 6.29663 28.9697 6.61291C29.1917 6.92919 29.529 7.1456 29.9091 7.21549C30.2891 7.28539 30.6814 7.20317 31.0014 6.98657L32.583 5.87636ZM14.1667 3.82447C14.1667 3.82523 14.1664 3.82598 14.166 3.82661C13.9424 4.14599 13.8545 4.54102 13.9216 4.92512C13.9887 5.30961 14.2057 5.65173 14.5249 5.87636L16.1089 6.98657C16.2671 7.10161 16.4466 7.18401 16.6369 7.22897C16.8272 7.27392 17.0246 7.28054 17.2175 7.24842C17.4104 7.21631 17.595 7.1461 17.7605 7.04191C17.926 6.93772 18.0691 6.80161 18.1814 6.64154C18.2937 6.48147 18.3731 6.30064 18.4148 6.10958C18.4566 5.91852 18.4598 5.72107 18.4245 5.52873C18.3891 5.33639 18.3158 5.15302 18.2088 4.98932C18.1018 4.82561 17.9633 4.68484 17.8014 4.57521L16.2174 3.465C15.8978 3.24088 15.5024 3.15273 15.1179 3.21991C14.7338 3.28701 14.392 3.50365 14.1673 3.82232C14.1669 3.82295 14.1667 3.8237 14.1667 3.82447ZM23.4467 6.69429C24.1444 6.68745 24.8365 6.81833 25.4835 7.07944C26.1305 7.34055 26.7197 7.72675 27.2171 8.21592C27.7146 8.70509 28.1107 9.28761 28.3827 9.93011C28.6547 10.5726 28.7972 11.2625 28.8022 11.9601C28.7893 13.011 28.4421 14.034 27.8498 14.8874C26.9333 16.2081 25.8934 17.6102 25.8934 19.2178C25.8886 19.37 25.825 19.5144 25.716 19.6207C25.607 19.727 25.4611 19.7871 25.3089 19.7882H21.8014C21.6492 19.7871 21.5033 19.727 21.3943 19.6207C21.2853 19.5144 21.2217 19.37 21.2169 19.2178C21.2169 17.6354 20.1993 16.2603 19.2855 14.9685C19.2458 14.9123 19.207 14.8552 19.1694 14.7974C18.6601 14.0147 18.3656 13.1118 18.3152 12.1794C18.291 11.482 18.4046 10.7867 18.6495 10.1334C18.8945 9.48003 19.266 8.88142 19.7427 8.37188C20.2194 7.86234 20.7919 7.45187 21.4275 7.164C22.0631 6.87612 22.7493 6.7165 23.4467 6.69429Z" fill="#1B43FE"/>
</g>
<defs>
<clipPath id="clip0_66_949">
<rect width="33" height="33" fill="white" transform="translate(0.252441)"/>
</clipPath>
</defs>
</svg>
