<svg width="38" height="37" viewBox="0 0 38 37" fill="none" xmlns="http://www.w3.org/2000/svg">
<path fill-rule="evenodd" clip-rule="evenodd" d="M22.9287 8.47928C22.9287 5.49926 20.5129 3.0835 17.5329 3.0835L17.2368 3.09145C14.3944 3.24515 12.137 5.59863 12.137 8.47928C12.137 11.4594 14.5528 13.8751 17.5329 13.8751L17.8289 13.8671C20.6713 13.7135 22.9287 11.36 22.9287 8.47928ZM19.0745 26.2085C19.0745 27.2778 19.2559 28.3047 19.5897 29.2602C19.8437 29.9873 19.3484 30.8335 18.5782 30.8335H7.74121C7.18893 30.8335 6.74121 30.3858 6.74121 29.8335V25.2835C6.74121 20.8006 10.186 17.1454 14.5013 16.9654L14.8349 16.9585H20.2308C20.9799 16.9585 21.7053 17.0632 22.3938 17.2591C23.1605 17.4773 23.1703 18.4853 22.548 18.9835C20.4306 20.6786 19.0745 23.2852 19.0745 26.2085ZM24.3515 30.106C24.1451 30.9712 25.0864 31.6551 25.8455 31.1914L27.8033 29.9956C28.1233 29.8002 28.5257 29.8002 28.8458 29.9956L30.8035 31.1914C31.5626 31.6551 32.5039 30.9712 32.2975 30.106L31.7652 27.8745C31.6782 27.5097 31.8026 27.1269 32.0874 26.883L33.8296 25.3906C34.5051 24.8119 34.1456 23.7054 33.259 23.6343L30.9722 23.451C30.5985 23.421 30.2728 23.1845 30.1288 22.8382L29.2478 20.72C28.9062 19.8988 27.7428 19.8988 27.4012 20.72L26.5202 22.8382C26.3762 23.1845 26.0506 23.421 25.6768 23.451L23.3901 23.6343C22.5034 23.7054 22.1439 24.8119 22.8194 25.3906L24.5616 26.883C24.8464 27.1269 24.9708 27.5097 24.8838 27.8745L24.3515 30.106Z" fill="#1B43FE"/>
</svg>
