<svg width="29" height="29" viewBox="0 0 29 29" fill="none" xmlns="http://www.w3.org/2000/svg">
<path d="M14.5745 23.7918L7.65786 27.9585C7.3523 28.1529 7.03286 28.2363 6.69952 28.2085C6.36619 28.1807 6.07452 28.0696 5.82452 27.8752C5.57452 27.6807 5.38008 27.4379 5.24119 27.1468C5.1023 26.8557 5.07452 26.529 5.15786 26.1668L6.99119 18.2918L0.86619 13.0002C0.588412 12.7502 0.415078 12.4652 0.346189 12.1452C0.277301 11.8252 0.297856 11.5129 0.407856 11.2085C0.517856 10.904 0.684523 10.654 0.907856 10.4585C1.13119 10.2629 1.43674 10.1379 1.82452 10.0835L9.90786 9.37516L13.0329 1.9585C13.1717 1.62516 13.3873 1.37516 13.6795 1.2085C13.9717 1.04183 14.2701 0.958496 14.5745 0.958496C14.879 0.958496 15.1773 1.04183 15.4695 1.2085C15.7617 1.37516 15.9773 1.62516 16.1162 1.9585L19.2412 9.37516L27.3245 10.0835C27.7134 10.139 28.019 10.264 28.2412 10.4585C28.4634 10.6529 28.6301 10.9029 28.7412 11.2085C28.8523 11.514 28.8734 11.8268 28.8045 12.1468C28.7356 12.4668 28.5617 12.7513 28.2829 13.0002L22.1579 18.2918L23.9912 26.1668C24.0745 26.5279 24.0467 26.8546 23.9079 27.1468C23.769 27.439 23.5745 27.6818 23.3245 27.8752C23.0745 28.0685 22.7829 28.1796 22.4495 28.2085C22.1162 28.2374 21.7967 28.154 21.4912 27.9585L14.5745 23.7918Z" fill="#1B43FE"/>
</svg>
