<svg width="33" height="33" viewBox="0 0 33 33" fill="none" xmlns="http://www.w3.org/2000/svg">
<path fill-rule="evenodd" clip-rule="evenodd" d="M16.988 1.12674C16.8348 1.05705 16.6684 1.021 16.5001 1.021C16.3317 1.021 16.1654 1.05705 16.0121 1.12674L9.82934 3.94117L16.4953 6.97717L23.1661 3.93881L16.988 1.12674ZM8.72148 13.2236V6.02488L15.3215 9.03024V16.9856L9.40741 14.2961C9.20151 14.2025 9.02691 14.0515 8.90445 13.8614C8.78198 13.6712 8.71683 13.4498 8.71677 13.2236H8.72148ZM17.6786 29.0447V21.1719L23.9298 24.0193V31.9747L18.0228 29.2852C17.8938 29.2265 17.7787 29.1451 17.6786 29.0447ZM26.2869 31.9794V24.0193L32.894 21.0116V28.2127C32.8939 28.4389 32.8288 28.6603 32.7063 28.8504C32.5838 29.0406 32.4092 29.1915 32.2033 29.2852L26.2869 31.9794ZM15.3168 21.1719V29.0542C15.2187 29.1502 15.1046 29.2284 14.9797 29.2852L9.06327 31.9794V24.0193L15.3168 21.1719ZM6.70613 24.0193V31.9747L0.801483 29.2852C0.595584 29.1915 0.420982 29.0406 0.298518 28.8504C0.176054 28.6603 0.110902 28.4389 0.11084 28.2127V21.014L6.71084 24.0193H6.70613ZM17.6739 16.9903V9.02789L24.281 6.02017V13.2236C24.2809 13.4498 24.2158 13.6712 24.0933 13.8614C23.9708 14.0515 23.7962 14.2025 23.5903 14.2961L17.6739 16.9903ZM24.6228 16.1182C24.776 16.0485 24.9424 16.0124 25.1107 16.0124C25.279 16.0124 25.4454 16.0485 25.5986 16.1182L31.7743 18.9279L25.1036 21.9662L18.4447 18.9279L24.6251 16.1135L24.6228 16.1182ZM7.40148 16.1182C7.55471 16.0485 7.72108 16.0124 7.88941 16.0124C8.05774 16.0124 8.22412 16.0485 8.37734 16.1182L14.5531 18.9279L7.8847 21.9686L1.22105 18.9279L7.40148 16.1182Z" fill="#1B43FE"/>
</svg>
