<svg width="37" height="36" viewBox="0 0 37 36" fill="none" xmlns="http://www.w3.org/2000/svg">
<path d="M28.7524 13.5C28.7531 11.6923 28.2871 9.91511 27.3995 8.34038C26.5119 6.76566 25.2328 5.44674 23.686 4.51131C22.1392 3.57589 20.3771 3.05563 18.5703 3.00091C16.7635 2.94618 14.9732 3.35884 13.3726 4.19895C11.772 5.03905 10.4154 6.27813 9.43418 7.79626C8.45291 9.31438 7.88019 11.0601 7.77146 12.8645C7.66272 14.6689 8.02166 16.4708 8.81352 18.0957C9.60538 19.7207 10.8033 21.1137 12.2914 22.14L7.75244 30L11.1364 30.1395L12.9484 33L18.1474 23.994L18.2524 24C18.3049 24.003 18.3214 23.9955 18.3574 23.994L23.5564 33L25.4044 30.201L28.7524 30L24.2134 22.14C25.6139 21.1758 26.7588 19.8855 27.5495 18.3803C28.3403 16.8751 28.7531 15.2002 28.7524 13.5ZM10.7524 13.5C10.7524 12.0166 11.1923 10.5666 12.0164 9.33319C12.8405 8.09982 14.0119 7.13852 15.3823 6.57087C16.7528 6.00321 18.2608 5.85468 19.7156 6.14407C21.1705 6.43346 22.5069 7.14777 23.5557 8.19666C24.6046 9.24556 25.3189 10.5819 25.6083 12.0368C25.8977 13.4916 25.7492 14.9996 25.1815 16.3701C24.6139 17.7405 23.6526 18.9119 22.4192 19.736C21.1859 20.5601 19.7358 21 18.2524 21C16.2633 21 14.3557 20.2098 12.9491 18.8033C11.5426 17.3967 10.7524 15.4891 10.7524 13.5Z" fill="#1B43FE"/>
<path d="M18.2524 18C20.7377 18 22.7524 15.9853 22.7524 13.5C22.7524 11.0147 20.7377 9 18.2524 9C15.7672 9 13.7524 11.0147 13.7524 13.5C13.7524 15.9853 15.7672 18 18.2524 18Z" fill="#1B43FE"/>
</svg>
